<svg width="16" height="16" viewBox="0 0 16 16" fill="none" xmlns="http://www.w3.org/2000/svg">
<path d="M7.33342 12C6.03341 12 4.93075 11.5473 4.02541 10.642C3.12008 9.73667 2.66719 8.63378 2.66675 7.33333V3.33333C2.66675 2.96667 2.79741 2.65289 3.05875 2.392C3.32008 2.13111 3.63386 2.00044 4.00008 2H12.3334C12.9779 2 13.5279 2.22778 13.9834 2.68333C14.439 3.13889 14.6667 3.68889 14.6667 4.33333C14.6667 4.97778 14.439 5.52778 13.9834 5.98333C13.5279 6.43889 12.9779 6.66667 12.3334 6.66667H12.0001V7.33333C12.0001 8.63333 11.5474 9.73622 10.6421 10.642C9.73675 11.5478 8.63386 12.0004 7.33342 12ZM4.00008 5.33333H10.6667V3.33333H4.00008V5.33333ZM12.0001 5.33333H12.3334C12.6112 5.33333 12.8474 5.23622 13.0421 5.042C13.2367 4.84778 13.3339 4.61156 13.3334 4.33333C13.333 4.05511 13.2359 3.81911 13.0421 3.62533C12.8483 3.43156 12.6121 3.33422 12.3334 3.33333H12.0001V5.33333ZM2.66675 14V12.6667H13.3334V14H2.66675Z" fill="currentColor"/>
</svg>
