<svg width="16" height="16" viewBox="0 0 16 16" fill="none" xmlns="http://www.w3.org/2000/svg">
<g clip-path="url(#clip0_301_7250)">
<path fill-rule="evenodd" clip-rule="evenodd" d="M8.88209 0.133236C9.17665 -0.0876673 9.59451 -0.0279565 9.81542 0.266604L10.8975 1.70943L11.9795 0.266604C12.2004 -0.0279565 12.6183 -0.0876673 12.9128 0.133236C13.2074 0.354139 13.2671 0.772004 13.0462 1.06656L12.2307 2.15393H14.6667C15.0349 2.15393 15.3334 2.45241 15.3334 2.8206V8.20563C15.3334 8.57382 15.0349 8.87229 14.6667 8.87229H7.12822C6.76003 8.87229 6.46156 8.57382 6.46156 8.20563V2.8206C6.46156 2.45241 6.76003 2.15393 7.12822 2.15393H9.56418L8.74872 1.06656C8.52782 0.772004 8.58753 0.354139 8.88209 0.133236ZM10.2308 3.48726V7.53896H7.79489V3.48726H10.2308ZM11.5641 7.53896V3.48726H14V7.53896H11.5641ZM5.2274 11.9741C5.2274 11.6059 5.52588 11.3074 5.89407 11.3074H10.7176C12.078 11.3074 13.1795 12.4107 13.1795 13.7694C13.1795 14.634 12.4773 15.3333 11.6147 15.3333H4.67725C4.67721 15.3333 4.67728 15.3333 4.67725 15.3333C4.01772 15.3333 3.37893 15.1023 2.8721 14.6802L0.239957 12.4873C-0.0429234 12.2517 -0.0811912 11.8313 0.154483 11.5484C0.390158 11.2655 0.81053 11.2273 1.09341 11.4629L3.72527 13.6556C3.72522 13.6556 3.72532 13.6557 3.72527 13.6556C3.9925 13.8781 4.32936 14 4.67704 13.9999H11.6147C11.7429 13.9999 11.8462 13.8957 11.8462 13.7694C11.8462 13.1465 11.341 12.6407 10.7176 12.6407H5.89407C5.52588 12.6407 5.2274 12.3423 5.2274 11.9741Z" fill="currentColor"/>
<path fill-rule="evenodd" clip-rule="evenodd" d="M3.5472 7.33325C3.92215 7.33282 4.29283 7.40935 4.63781 7.55774C4.98287 7.70615 5.29465 7.92318 5.55605 8.19502L6.81227 9.50404C7.14878 9.85439 7.33333 10.324 7.33333 10.8084C7.33333 11.2927 7.14878 11.7624 6.81227 12.1127C6.47488 12.464 6.01142 12.6666 5.52221 12.6666C5.033 12.6666 4.56953 12.464 4.23214 12.1127L3.42289 11.2702C3.16783 11.0047 3.17634 10.5826 3.44188 10.3276C3.70742 10.0725 4.12945 10.081 4.3845 10.3466L5.19375 11.1891C5.28562 11.2848 5.40436 11.3333 5.52221 11.3333C5.64006 11.3333 5.75879 11.2848 5.85066 11.1891C5.9434 11.0926 6 10.9561 6 10.8084C6 10.6607 5.9434 10.5242 5.85066 10.4277L4.59495 9.11918C4.59487 9.1191 4.59502 9.11926 4.59495 9.11918C4.45501 8.97371 4.29016 8.85964 4.11098 8.78257C3.93177 8.70549 3.74072 8.66633 3.54851 8.66659L0.666667 8.66659C0.298477 8.66659 0 8.36811 0 7.99992C0 7.63173 0.298477 7.33325 0.666667 7.33325H3.5472Z" fill="currentColor"/>
</g>
<defs>
<clipPath id="clip0_301_7250">
<rect width="16" height="16" fill="currentColor"/>
</clipPath>
</defs>
</svg>
