<svg width="16" height="16" viewBox="0 0 16 16" fill="none" xmlns="http://www.w3.org/2000/svg">
<g clip-path="url(#clip0_301_6629)">
<path d="M15 9.5C15 10.099 14.9219 10.6745 14.7656 11.2266C14.6094 11.7786 14.3906 12.2943 14.1094 12.7734C13.8281 13.2526 13.4896 13.6927 13.0938 14.0938C12.6979 14.4948 12.2604 14.8333 11.7812 15.1094C11.3021 15.3854 10.7839 15.6042 10.2266 15.7656C9.66927 15.9271 9.09375 16.0052 8.5 16C7.90104 16 7.32552 15.9219 6.77344 15.7656C6.22135 15.6094 5.70573 15.3906 5.22656 15.1094C4.7474 14.8281 4.30729 14.4896 3.90625 14.0938C3.50521 13.6979 3.16667 13.2604 2.89062 12.7812C2.61458 12.3021 2.39583 11.7839 2.23438 11.2266C2.07292 10.6693 1.99479 10.0938 2 9.5V9H3V9.5C3 10.0052 3.0651 10.4922 3.19531 10.9609C3.32552 11.4297 3.51042 11.8672 3.75 12.2734C3.98958 12.6797 4.27604 13.0495 4.60938 13.3828C4.94271 13.7161 5.3151 14.0052 5.72656 14.25C6.13802 14.4948 6.57552 14.6797 7.03906 14.8047C7.5026 14.9297 7.98958 14.9948 8.5 15C9.00521 15 9.49219 14.9349 9.96094 14.8047C10.4297 14.6745 10.8672 14.4896 11.2734 14.25C11.6797 14.0104 12.0495 13.724 12.3828 13.3906C12.7161 13.0573 13.0052 12.6849 13.25 12.2734C13.4948 11.862 13.6797 11.4245 13.8047 10.9609C13.9297 10.4974 13.9948 10.0104 14 9.5C14 8.99479 13.9349 8.50781 13.8047 8.03906C13.6745 7.57031 13.4896 7.13281 13.25 6.72656C13.0104 6.32031 12.724 5.95052 12.3906 5.61719C12.0573 5.28385 11.6849 4.99479 11.2734 4.75C10.862 4.50521 10.4245 4.32031 9.96094 4.19531C9.4974 4.07031 9.01042 4.00521 8.5 4H1.95312L4.22656 6.27344L3.52344 6.97656L0.046875 3.5L3.52344 0.0234375L4.22656 0.726562L1.95312 3H8.5C9.09896 3 9.67448 3.07812 10.2266 3.23438C10.7786 3.39062 11.2943 3.60938 11.7734 3.89062C12.2526 4.17188 12.6927 4.51042 13.0938 4.90625C13.4948 5.30208 13.8333 5.73958 14.1094 6.21875C14.3854 6.69792 14.6042 7.21615 14.7656 7.77344C14.9271 8.33073 15.0052 8.90625 15 9.5Z" fill="#222222"/>
</g>
<defs>
<clipPath id="clip0_301_6629">
<rect width="16" height="16" fill="white"/>
</clipPath>
</defs>
</svg>
