<svg width="16" height="16" viewBox="0 0 16 16" fill="none" xmlns="http://www.w3.org/2000/svg">
<path d="M8.03325 12.6667L9.93325 10.7834L8.03325 8.90004L7.33325 9.60004L8.04992 10.3167C7.73881 10.3278 7.43614 10.2778 7.14192 10.1667C6.8477 10.0556 6.5837 9.88337 6.34992 9.65004C6.1277 9.42782 5.95814 9.17226 5.84125 8.88337C5.72436 8.59448 5.66614 8.3056 5.66659 8.01671C5.66659 7.82782 5.6917 7.63893 5.74192 7.45004C5.79214 7.26115 5.86148 7.07782 5.94992 6.90004L5.21659 6.16671C5.0277 6.44448 4.88881 6.73893 4.79992 7.05004C4.71103 7.36115 4.66659 7.67782 4.66659 8.00004C4.66659 8.42226 4.74992 8.83893 4.91659 9.25004C5.08325 9.66115 5.3277 10.0278 5.64992 10.35C5.97214 10.6723 6.33325 10.914 6.73325 11.0754C7.13325 11.2367 7.54436 11.3227 7.96659 11.3334L7.33325 11.9667L8.03325 12.6667ZM10.7833 9.83337C10.9721 9.5556 11.111 9.26115 11.1999 8.95004C11.2888 8.63893 11.3333 8.32226 11.3333 8.00004C11.3333 7.57782 11.2526 7.15826 11.0913 6.74137C10.9299 6.32449 10.6884 5.95515 10.3666 5.63337C10.0448 5.3116 9.68081 5.07271 9.27459 4.91671C8.86836 4.76071 8.45459 4.68293 8.03325 4.68337L8.66659 4.03337L7.96659 3.33337L6.06659 5.21671L7.96659 7.10004L8.66659 6.40004L7.93325 5.66671C8.23325 5.66671 8.53881 5.72515 8.84992 5.84204C9.16103 5.95893 9.4277 6.12826 9.64992 6.35004C9.87214 6.57182 10.0417 6.82737 10.1586 7.11671C10.2755 7.40604 10.3337 7.69493 10.3333 7.98337C10.3333 8.17226 10.3084 8.36115 10.2586 8.55004C10.2088 8.73893 10.1393 8.92226 10.0499 9.10004L10.7833 9.83337ZM7.99992 14.6667C7.0777 14.6667 6.21103 14.4916 5.39992 14.1414C4.58881 13.7912 3.88325 13.3163 3.28325 12.7167C2.68325 12.1172 2.20836 11.4116 1.85859 10.6C1.50881 9.78848 1.3337 8.92182 1.33325 8.00004C1.33281 7.07826 1.50792 6.2116 1.85859 5.40004C2.20925 4.58849 2.68414 3.88293 3.28325 3.28337C3.88236 2.68382 4.58792 2.20893 5.39992 1.85871C6.21192 1.50849 7.07859 1.33337 7.99992 1.33337C8.92125 1.33337 9.78792 1.50849 10.5999 1.85871C11.4119 2.20893 12.1175 2.68382 12.7166 3.28337C13.3157 3.88293 13.7908 4.58849 14.1419 5.40004C14.493 6.2116 14.6679 7.07826 14.6666 8.00004C14.6653 8.92182 14.4901 9.78848 14.1413 10.6C13.7924 11.4116 13.3175 12.1172 12.7166 12.7167C12.1157 13.3163 11.4101 13.7914 10.5999 14.142C9.7897 14.4927 8.92303 14.6676 7.99992 14.6667ZM7.99992 13.3334C9.48881 13.3334 10.7499 12.8167 11.7833 11.7834C12.8166 10.75 13.3333 9.48893 13.3333 8.00004C13.3333 6.51115 12.8166 5.25004 11.7833 4.21671C10.7499 3.18337 9.48881 2.66671 7.99992 2.66671C6.51103 2.66671 5.24992 3.18337 4.21659 4.21671C3.18325 5.25004 2.66659 6.51115 2.66659 8.00004C2.66659 9.48893 3.18325 10.75 4.21659 11.7834C5.24992 12.8167 6.51103 13.3334 7.99992 13.3334Z" fill="black"/>
</svg>
