<svg width="132" height="28" viewBox="0 0 132 28" fill="none" xmlns="http://www.w3.org/2000/svg">
<path d="M119.881 6.26801C126.591 6.26801 132 11.134 132 17.1546C132 23.134 126.591 28 119.881 28C113.212 28 107.803 23.134 107.803 17.1546C107.803 11.134 113.212 6.26801 119.881 6.26801ZM119.881 24C124.111 24 127.486 20.9072 127.486 17.1546C127.486 13.3608 124.111 10.268 119.881 10.268C115.692 10.268 112.276 13.3608 112.276 17.1546C112.276 20.9072 115.692 24 119.881 24Z" fill="#00664F"/>
<path d="M104.693 6.84546H109.085L98.9993 27.4228H94.2004L84.1147 6.84546H88.5069L95.8272 21.7733C96.1118 22.3919 96.2745 23.0929 96.2745 23.7939V24.5774H96.8845V23.7939C96.8845 23.0929 97.0472 22.3919 97.3725 21.7733L104.693 6.84546Z" fill="#00664F"/>
<path d="M85.3748 17.1546C85.3748 17.7319 85.3341 18.3093 85.2121 18.8453H65.8947C66.7488 21.8144 69.7175 24 73.2557 24C75.5331 24 77.5258 23.0928 78.9492 21.6907H84.236C82.3246 25.402 78.1358 28 73.2557 28C66.5861 28 61.1772 23.134 61.1772 17.1546C61.1772 11.134 66.5861 6.26801 73.2557 6.26801C79.3152 6.26801 84.3174 10.2268 85.2121 15.4227C85.3341 16 85.3748 16.5361 85.3748 17.1546ZM67.3995 15.4227H80.6166C79.8032 12.4536 76.7938 10.268 73.2557 10.268C69.9209 10.268 67.1148 12.2062 66.0574 14.8866C65.9761 15.2165 65.8134 15.5051 65.6507 15.7526L64.8374 16.9484L65.3661 17.3196L66.1388 16.0824C66.4234 15.6701 66.8708 15.4227 67.3995 15.4227Z" fill="#00664F"/>
<path d="M60.1956 17.1546C60.1956 17.7319 60.1549 18.3093 60.0329 18.8453H40.7155C41.5696 21.8144 44.5383 24 48.0765 24C50.3539 24 52.3466 23.0928 53.77 21.6907H59.0568C57.1454 25.402 52.9566 28 48.0765 28C41.4069 28 35.998 23.134 35.998 17.1546C35.998 11.134 41.4069 6.26801 48.0765 6.26801C54.136 6.26801 59.1382 10.2268 60.0329 15.4227C60.1549 16 60.1956 16.5361 60.1956 17.1546ZM42.2203 15.4227H55.4374C54.624 12.4536 51.6146 10.268 48.0765 10.268C44.7417 10.268 41.9356 12.2062 40.8782 14.8866C40.7969 15.2165 40.6342 15.5051 40.4715 15.7526L39.6582 16.9484L40.1869 17.3196L40.9596 16.0824C41.2442 15.6701 41.6916 15.4227 42.2203 15.4227Z" fill="#00664F"/>
<path d="M33.7545 0H37.862L29.6064 27.4227H24.0348L19.4393 12.165C19.2767 11.7526 19.236 11.299 19.236 10.8454V9.69073H18.626V10.8454C18.626 11.299 18.5446 11.7526 18.4226 12.165L13.8271 27.4227H8.25562L0 0H4.10748L10.533 21.3608C10.6957 21.7732 10.7364 22.2268 10.7364 22.6804V24.5361H11.3464V22.6804C11.3464 22.2268 11.4277 21.7732 11.5497 21.3608L16.7959 4H21.0661L26.3122 21.3608C26.4342 21.7732 26.5156 22.2268 26.5156 22.6804V24.5361H27.1256V22.6804C27.1256 22.2268 27.1663 21.7732 27.3289 21.3608L33.7545 0Z" fill="#00664F"/>
</svg>
