<svg width="24" height="24" viewBox="0 0 24 24" fill="none" xmlns="http://www.w3.org/2000/svg">
<path d="M7.00684 12.0001C7.00684 11.8012 7.08585 11.6104 7.22651 11.4698C7.36716 11.3291 7.55792 11.2501 7.75684 11.2501H11.2498V7.75708C11.2498 7.55817 11.3289 7.3674 11.4695 7.22675C11.6102 7.0861 11.8009 7.00708 11.9998 7.00708C12.1987 7.00708 12.3895 7.0861 12.5302 7.22675C12.6708 7.3674 12.7498 7.55817 12.7498 7.75708V11.2501H16.2428C16.4417 11.2501 16.6325 11.3291 16.7732 11.4698C16.9138 11.6104 16.9928 11.8012 16.9928 12.0001C16.9928 12.199 16.9138 12.3898 16.7732 12.5304C16.6325 12.6711 16.4417 12.7501 16.2428 12.7501H12.7498V16.2431C12.7498 16.442 12.6708 16.6328 12.5302 16.7734C12.3895 16.9141 12.1987 16.9931 11.9998 16.9931C11.8009 16.9931 11.6102 16.9141 11.4695 16.7734C11.3289 16.6328 11.2498 16.442 11.2498 16.2431V12.7501H7.75684C7.55792 12.7501 7.36716 12.6711 7.22651 12.5304C7.08585 12.3898 7.00684 12.199 7.00684 12.0001Z" fill="#999999"/>
<path fill-rule="evenodd" clip-rule="evenodd" d="M7.31716 3.76905C10.4296 3.42399 13.5707 3.42399 16.6832 3.76905C18.5102 3.97305 19.9852 5.41205 20.1992 7.24905C20.5692 10.406 20.5692 13.595 20.1992 16.752C19.9842 18.589 18.5092 20.027 16.6832 20.232C13.5707 20.5771 10.4296 20.5771 7.31716 20.232C5.49016 20.027 4.01516 18.589 3.80116 16.752C3.43282 13.5951 3.43282 10.406 3.80116 7.24905C4.01516 5.41205 5.49116 3.97305 7.31716 3.76905ZM16.5172 5.25905C13.515 4.92627 10.4853 4.92627 7.48316 5.25905C6.9274 5.3207 6.40866 5.56792 6.01074 5.96076C5.61281 6.35361 5.35895 6.86913 5.29016 7.42405C4.93449 10.465 4.93449 13.5371 5.29016 16.578C5.35916 17.1328 5.61312 17.6481 6.01102 18.0407C6.40892 18.4334 6.92755 18.6804 7.48316 18.742C10.4602 19.074 13.5402 19.074 16.5172 18.742C17.0726 18.6802 17.591 18.4331 17.9887 18.0404C18.3864 17.6478 18.6402 17.1326 18.7092 16.578C19.0648 13.5371 19.0648 10.465 18.7092 7.42405C18.64 6.86964 18.3861 6.35469 17.9884 5.96227C17.5907 5.56985 17.0724 5.32282 16.5172 5.26105" fill="#999999"/>
</svg>
